<?xml version="1.0" encoding="UTF-8"?>
<svg version="1.1" xmlns="http://www.w3.org/2000/svg" width="512" height="512">
<path d="M0 0 C1.9375 1 1.9375 1 3 3 C3.56415526 9.72532451 2.01578515 14.27694767 -0.6875 20.375 C-4.65255784 29.73831155 -7.52542139 39.14927361 -10 49 C-8.83210937 48.39414062 -7.66421875 47.78828125 -6.4609375 47.1640625 C28.11725458 29.71151359 65.0253556 21.53305021 103.625 21.6875 C104.59555328 21.68965515 105.56610657 21.6918103 106.56607056 21.69403076 C120.89430898 21.7450666 134.92185782 22.09241562 149 25 C149.98307129 25.19867676 150.96614258 25.39735352 151.97900391 25.60205078 C207.30577233 37.10870849 260.03059699 67.01233558 295 112 C295.78761719 112.98226562 296.57523437 113.96453125 297.38671875 114.9765625 C314.73898215 136.78181877 328.16074682 161.57960034 337 188 C337.27924316 188.83337891 337.55848633 189.66675781 337.84619141 190.52539062 C340.8413823 199.62907856 343.32754123 208.79766209 345.25 218.1875 C345.40114258 218.92170166 345.55228516 219.65590332 345.70800781 220.41235352 C348.6345031 235.67075644 349.40815745 250.81038908 349.375 266.3125 C349.37418427 267.75524796 349.37418427 267.75524796 349.37335205 269.22714233 C349.31026929 293.59752776 346.08423852 316.63413749 339 340 C338.75443359 340.82306641 338.50886719 341.64613281 338.25585938 342.49414062 C325.25179881 385.14334189 297.78284324 426.95375601 262.734375 454.82421875 C260.93169855 456.25863415 259.14956347 457.71930634 257.390625 459.20703125 C245.31221745 469.40935479 231.97064899 477.65669319 218 485 C217.25105469 485.39687012 216.50210937 485.79374023 215.73046875 486.20263672 C181.25134854 504.22126484 143.4212754 512.45784763 104.6875 512.375 C103.24475204 512.37418427 103.24475204 512.37418427 101.77285767 512.37335205 C77.40247224 512.31026929 54.36586251 509.08423852 31 502 C30.17693359 501.75443359 29.35386719 501.50886719 28.50585938 501.25585938 C-4.75779908 491.11352104 -35.60662017 472.64844595 -61 449 C-62.35006164 447.82858546 -63.70407514 446.6617058 -65.0625 445.5 C-73.2326265 438.34703785 -80.28906619 430.52469971 -87 422 C-88.2065625 420.4840625 -88.2065625 420.4840625 -89.4375 418.9375 C-106.7387004 397.01290793 -120.17744633 372.54066086 -129 346 C-129.27779297 345.16952148 -129.55558594 344.33904297 -129.84179688 343.48339844 C-132.83864042 334.37651975 -135.3268199 325.20586107 -137.25 315.8125 C-137.47671387 314.71119751 -137.47671387 314.71119751 -137.70800781 313.58764648 C-140.65767558 298.20842501 -141.37501267 282.99798474 -141.3125 267.375 C-141.31034485 266.40444672 -141.3081897 265.43389343 -141.30596924 264.43392944 C-141.2549334 250.10569102 -140.90758438 236.07814218 -138 222 C-137.80132324 221.01692871 -137.60264648 220.03385742 -137.39794922 219.02099609 C-131.66774048 191.46877893 -122.00939869 164.95047695 -107.2890625 140.87109375 C-104.08627853 135.46370983 -102.34326796 130.34313762 -100.9375 124.25 C-100.44823113 122.32020595 -99.95339489 120.39181525 -99.453125 118.46484375 C-99.21142578 117.53269043 -98.96972656 116.60053711 -98.72070312 115.64013672 C-92.160133 91.60693708 -79.3120766 69.44825471 -64 50 C-63.35160156 49.14664063 -62.70320313 48.29328125 -62.03515625 47.4140625 C-50.05958046 32.10555295 -21.6007077 -1.51583914 0 0 Z " fill="#8588E4" transform="translate(152,0)"/>
<path d="M0 0 C0.97055328 0.00215515 1.94110657 0.0043103 2.94107056 0.00653076 C17.26930898 0.0575666 31.29685782 0.40491562 45.375 3.3125 C46.35807129 3.51117676 47.34114258 3.70985352 48.35400391 3.91455078 C103.68077233 15.42120849 156.40559699 45.32483558 191.375 90.3125 C192.16261719 91.29476562 192.95023437 92.27703125 193.76171875 93.2890625 C211.11398215 115.09431877 224.53574682 139.89210034 233.375 166.3125 C233.65424316 167.14587891 233.93348633 167.97925781 234.22119141 168.83789062 C237.2163823 177.94157856 239.70254123 187.11016209 241.625 196.5 C241.77614258 197.23420166 241.92728516 197.96840332 242.08300781 198.72485352 C245.0095031 213.98325644 245.78315745 229.12288908 245.75 244.625 C245.74918427 246.06774796 245.74918427 246.06774796 245.74835205 247.53964233 C245.68526929 271.91002776 242.45923852 294.94663749 235.375 318.3125 C235.12943359 319.13556641 234.88386719 319.95863281 234.63085938 320.80664062 C225.53140418 350.64997257 209.25700333 383.46870009 186.375 405.3125 C185.6325 404.69375 184.89 404.075 184.125 403.4375 C179.52588927 399.88364171 176.19272903 398.98377643 170.375 398.3125 C170.00375 397.24 169.6325 396.1675 169.25 395.0625 C163.97947182 381.17194909 157.87400643 371.12711096 144.375 364.3125 C134.74970953 360.17506171 123.07202742 359.62598308 113.25 363.3125 C112.38117188 363.68375 111.51234375 364.055 110.6171875 364.4375 C108.375 365.3125 108.375 365.3125 105.375 365.3125 C105.09527344 364.55066406 104.81554687 363.78882813 104.52734375 363.00390625 C101.19158724 354.41245621 96.97863588 347.73603672 90.375 341.3125 C91.8254628 336.96111161 95.17833281 335.91509962 99 333.8125 C122.70659203 320.29367929 142.96998313 302.06577406 159.375 280.3125 C160.27798828 279.23355469 160.27798828 279.23355469 161.19921875 278.1328125 C162.72723138 276.1562848 162.72723138 276.1562848 162.1875 272.625 C161.919375 271.531875 161.65125 270.43875 161.375 269.3125 C156.31242502 266.78121251 149.17501437 269.59184929 144.0625 271.125 C93.62557356 286.08741076 39.94168576 280.56621579 -6.49047852 255.88085938 C-14.53704872 251.48390203 -22.21656201 246.71290141 -29.625 241.3125 C-30.1833252 240.90821777 -30.74165039 240.50393555 -31.31689453 240.08740234 C-39.58990561 234.04606892 -47.23700804 227.4065219 -54.625 220.3125 C-55.47046387 219.5078833 -55.47046387 219.5078833 -56.33300781 218.68701172 C-79.29142336 196.73643385 -96.35097559 169.97944086 -107.625 140.3125 C-107.94098145 139.48379395 -108.25696289 138.65508789 -108.58251953 137.80126953 C-113.6630228 124.21593608 -116.56534108 110.64848789 -118.625 96.3125 C-118.8007959 95.19593018 -118.9765918 94.07936035 -119.15771484 92.92895508 C-119.95430884 86.76388356 -119.86724611 80.58289214 -119.875 74.375 C-119.87667175 73.67184662 -119.87834351 72.96869324 -119.88006592 72.24423218 C-119.88507989 36.89220348 -119.88507989 36.89220348 -114.625 28.3125 C-96.46330862 15.05500422 -70.4277114 8.62207178 -48.625 4.125 C-47.87895508 3.96990967 -47.13291016 3.81481934 -46.36425781 3.6550293 C-30.93627433 0.65223446 -15.67921691 -0.06273767 0 0 Z " fill="#514BBE" transform="translate(255.625,21.6875)"/>
<path d="M0 0 C1.9375 1 1.9375 1 3 3 C3.53673223 9.61486205 2.10715214 14.01074628 -0.5625 20 C-19.126189 64.30018463 -20.61870753 113.85954112 -4 159 C-3.68514648 159.86351074 -3.37029297 160.72702148 -3.04589844 161.61669922 C3.0777608 178.19044835 10.76356628 193.56662845 21 208 C21.62390625 208.89847656 22.2478125 209.79695312 22.890625 210.72265625 C37.00480026 230.66036317 54.09436497 247.86622308 74 262 C74.60457031 262.43860352 75.20914063 262.87720703 75.83203125 263.32910156 C95.78080048 277.73777468 118.21102444 287.91326851 142 294 C142.66161133 294.17273438 143.32322266 294.34546875 144.00488281 294.5234375 C180.09856217 303.80322837 219.07257923 301.84327498 254.3125 289.875 C257.45439091 288.85205877 259.71805793 288.5719206 263 289 C265.375 290.6875 265.375 290.6875 267 293 C267.56286485 296.47898382 267.09931066 297.83829061 265.234375 300.875 C264.41453125 301.90625 263.5946875 302.9375 262.75 304 C262.30543457 304.56033936 261.86086914 305.12067871 261.40283203 305.69799805 C256.25464433 312.08912826 250.67505996 318.07810887 245 324 C243.93458984 325.12728516 243.93458984 325.12728516 242.84765625 326.27734375 C229.96154933 339.58508198 212.23652264 353.81811557 195 361 C190.15576044 360.77383821 186.83414905 358.1688598 182.890625 355.5703125 C174.37925622 350.94656892 166.4294219 350.56229785 156.90820312 350.47265625 C150.70544519 350.32691073 146.17186807 349.76804227 141.3125 345.52734375 C138.60367385 342.24611683 136.31597936 338.93819151 134.1875 335.25 C128.48767645 325.25532119 128.48767645 325.25532119 120 318 C120 317.34 120 316.68 120 316 C119.47277344 315.74992187 118.94554687 315.49984375 118.40234375 315.2421875 C115.97807012 313.98866065 113.66393988 312.5949915 111.33032227 311.18188477 C95.34375508 301.62438589 77.07320578 298.15630183 58.8125 302.625 C48.68327313 305.30870789 39.97473127 309.72579416 31.9375 316.484375 C30 318 30 318 27.875 318.953125 C25.48527489 320.28738818 25.10740612 321.53556752 24 324 C22.93953615 325.33104612 21.85385445 326.64221134 20.75 327.9375 C13.32128976 337.38941407 9.92448104 348.52571263 7 360 C5.44140625 360.72265625 5.44140625 360.72265625 3 361 C0.48485223 359.92382162 -1.71576826 358.81072569 -4.0625 357.4375 C-5.10555298 356.8355481 -5.10555298 356.8355481 -6.16967773 356.22143555 C-20.58054161 347.67829639 -33.49679112 337.27661053 -45.41748047 325.54736328 C-46.8210116 324.17501211 -48.25421894 322.8331577 -49.69140625 321.49609375 C-82.29772671 290.56457627 -103.25072725 243.38477302 -107 199 C-107.16242188 197.45892578 -107.16242188 197.45892578 -107.328125 195.88671875 C-112.28984793 143.46219886 -96.46186104 91.23062851 -64 50 C-63.35160156 49.14664063 -62.70320313 48.29328125 -62.03515625 47.4140625 C-50.05958046 32.10555295 -21.6007077 -1.51583914 0 0 Z " fill="#FCC900" transform="translate(152,0)"/>
<path d="M0 0 C1.08055714 3.35707552 0.92168581 5.9347056 0.44140625 9.41015625 C0.3024292 10.47274658 0.16345215 11.53533691 0.02026367 12.63012695 C-0.13079834 13.76281006 -0.28186035 14.89549316 -0.4375 16.0625 C-3.52605874 41.14947822 -1.73953924 65.39546153 4 90 C4.16838379 90.73750488 4.33676758 91.47500977 4.51025391 92.23486328 C16.41750509 143.09469456 50.57832789 186.90362393 94 215 C96.52010319 216.55919112 99.06253925 218.0740509 101.625 219.5625 C102.21732422 219.90949951 102.80964844 220.25649902 103.41992188 220.61401367 C106.17980086 222.1770636 107.77147873 223 111 223 C111.27972656 221.92363281 111.55945313 220.84726562 111.84765625 219.73828125 C117.67226519 198.17805363 128.50133421 181.78102089 148.15234375 170.3828125 C166.21657166 161.6108829 185.21678196 160.72604832 204.19140625 167.06640625 C220.73396675 173.46793349 220.73396675 173.46793349 224 180 C222.87464844 180.14695312 221.74929688 180.29390625 220.58984375 180.4453125 C204.96252062 182.65577313 192.45452304 186.86259753 180 197 C179.36835938 197.44601562 178.73671875 197.89203125 178.0859375 198.3515625 C166.93441913 206.65155106 159.26784891 223.68266332 157 237 C156.7527127 240.65106266 156.76493074 244.27967456 156.8125 247.9375 C156.81314453 248.87529297 156.81378906 249.81308594 156.81445312 250.77929688 C156.84238569 255.24540286 157.02334885 259.59199678 157.59375 264.0234375 C158 268 158 268 156.6875 270.6875 C154.19540559 272.83186031 151.92806533 274.18035451 149.0625 275.75 C142.7220895 279.4143843 140.16007094 283.844522 138.21484375 290.8125 C137.97894531 291.76125 137.74304688 292.71 137.5 293.6875 C136.24250862 298.73159462 134.81819915 301.45452936 131 305 C127.20881306 306.84648483 123.73453975 307.37359177 119.5625 307.8125 C102.28369545 310.15967303 85.14792159 318.31880782 74.22265625 332.26953125 C73.81917969 332.84058594 73.41570312 333.41164063 73 334 C62.03560797 329.04312498 52.65792422 320.13403709 44 312 C42.63085913 310.80574939 41.25633896 309.6176203 39.875 308.4375 C31.72086649 301.31301267 24.69134867 293.49982128 18 285 C16.7934375 283.4840625 16.7934375 283.4840625 15.5625 281.9375 C-1.7387004 260.01290793 -15.17744633 235.54066086 -24 209 C-24.27779297 208.16952148 -24.55558594 207.33904297 -24.84179688 206.48339844 C-27.83864042 197.37651975 -30.3268199 188.20586107 -32.25 178.8125 C-32.40114258 178.07829834 -32.55228516 177.34409668 -32.70800781 176.58764648 C-35.65767558 161.20842501 -36.37501267 145.99798474 -36.3125 130.375 C-36.31034485 129.40444672 -36.3081897 128.43389343 -36.30596924 127.43392944 C-36.2549334 113.10569102 -35.90758438 99.07814218 -33 85 C-32.80132324 84.01692871 -32.60264648 83.03385742 -32.39794922 82.02099609 C-26.34945227 52.93837293 -15.77487805 25.24051259 0 0 Z " fill="#7A79DD" transform="translate(47,137)"/>
<path d="M0 0 C-3.3968076 4.69477474 -6.97649821 9.16404917 -10.75 13.5625 C-33.86872569 40.95439641 -48.00681186 75.04776974 -53.55810547 110.23193359 C-53.86589098 112.15992925 -54.19466137 114.08464256 -54.53955078 116.00634766 C-56.00856852 124.55920787 -56.40125938 132.95724643 -56.375 141.625 C-56.37368576 142.69498734 -56.37368576 142.69498734 -56.37234497 143.78659058 C-56.22218038 181.23576975 -45.95571757 220.56642364 -25 252 C-24.38125 251.67 -23.7625 251.34 -23.125 251 C-18.73788488 249.59612316 -14.56848573 249.84032477 -10 250 C-10.4021875 248.453125 -10.4021875 248.453125 -10.8125 246.875 C-11 243 -11 243 -9 239.5625 C-6 237 -6 237 -2.5 236.3125 C1.90093281 237.17696895 3.39836569 238.37347945 6 242 C6.73449369 245.91729966 6.38529381 247.41541628 4.1875 250.75 C2 253 2 253 -1 255 C-0.71125 255.4846875 -0.4225 255.969375 -0.125 256.46875 C2.49227297 261.19438174 4.35780925 265.54908459 3 271 C1.23636549 274.55785228 -0.78770321 277.68155482 -3 281 C2.445 286.445 2.445 286.445 8 292 C9.32 291.34 10.64 290.68 12 290 C15.47182303 288.26408848 19.20408964 288.53428327 23 289 C26.15689734 290.60714774 28.19415756 291.97438234 30.375 294.75 C31.57133565 299.05680834 31.66656388 303.33359031 30 307.5 C29.67 307.995 29.34 308.49 29 309 C30.98 310.65 32.96 312.3 35 314 C33.38405168 316.04119788 31.7143618 318.04072937 30 320 C29.34 320 28.68 320 28 320 C27.60554688 320.86818359 27.60554688 320.86818359 27.203125 321.75390625 C25.93939939 324.11313426 24.48383984 325.90297172 22.75 327.9375 C15.32128976 337.38941407 11.92448104 348.52571263 9 360 C7.44140625 360.72265625 7.44140625 360.72265625 5 361 C2.48485223 359.92382162 0.28423174 358.81072569 -2.0625 357.4375 C-3.10555298 356.8355481 -3.10555298 356.8355481 -4.16967773 356.22143555 C-18.58054161 347.67829639 -31.49679112 337.27661053 -43.41748047 325.54736328 C-44.8210116 324.17501211 -46.25421894 322.8331577 -47.69140625 321.49609375 C-80.29772671 290.56457627 -101.25072725 243.38477302 -105 199 C-105.16242188 197.45892578 -105.16242188 197.45892578 -105.328125 195.88671875 C-110.28984793 143.46219886 -94.46186104 91.23062851 -62 50 C-61.35160156 49.14664063 -60.70320313 48.29328125 -60.03515625 47.4140625 C-48.59309956 32.78755625 -20.60374076 -0.5422037 0 0 Z " fill="#FDAC00" transform="translate(150,0)"/>
<path d="M0 0 C3.07046186 1.33589571 4.81921203 2.66260612 6.84765625 5.31640625 C7.36457031 5.98865234 7.88148438 6.66089844 8.4140625 7.35351562 C8.95804688 8.08248047 9.50203125 8.81144531 10.0625 9.5625 C10.92294922 10.7081543 10.92294922 10.7081543 11.80078125 11.87695312 C27.7162221 33.30293932 40.51781128 56.64686086 49 82 C49.41886475 83.25006836 49.41886475 83.25006836 49.84619141 84.52539062 C54.89959191 99.88487278 58.35601995 115.51186487 60.3125 131.5625 C60.40112305 132.25166504 60.48974609 132.94083008 60.58105469 133.65087891 C61.02494826 137.7731706 60.91703952 141.63955611 60.51245117 145.76928711 C60.41784103 146.75134628 60.3232309 147.73340546 60.22575378 148.745224 C60.15125504 149.48930008 60.07675629 150.23337616 60 151 C39.2155554 151.1404119 18.43118946 151.24608926 -2.35363388 151.31087303 C-12.00528609 151.34175824 -21.65664291 151.38383623 -31.30810547 151.45263672 C-39.72428317 151.51260267 -48.14024686 151.5511879 -56.55663228 151.56453097 C-61.00958977 151.57232578 -65.4619352 151.59053254 -69.91469574 151.63438034 C-74.11404807 151.67539401 -78.31254181 151.68761178 -82.51207542 151.67864609 C-84.04546223 151.680284 -85.57888059 151.69204752 -87.11209297 151.71523285 C-97.68527994 151.86715063 -106.75337569 150.46710409 -114.99285507 143.25583458 C-120.44129015 137.58619461 -123.64016817 129.58785584 -124.25 121.8125 C-123.65642111 112.76042198 -119.95267074 105.65083794 -113.4375 99.375 C-106.7236442 93.74482779 -98.95055794 91.58462285 -90.2890625 91.46875 C-86.96845248 90.7887616 -85.37312863 89.39293772 -83 87 C-81.69193875 84.03919206 -81.69193875 84.03919206 -80.9375 80.75 C-76.62995014 65.43426717 -68.45856576 55.9203166 -54.8203125 47.68359375 C-49.00985933 44.71258845 -42.96286928 44.22017606 -36.55078125 43.6875 C-32.49367499 42.90196568 -30.21493142 41.56064816 -27 39 C-24.80935091 36.11923574 -24.80935091 36.11923574 -24.3125 32.6875 C-21.60412645 21.10167983 -14.91223607 10.4205987 -5.1875 3.625 C-4.21167969 2.93664062 -3.23585938 2.24828125 -2.23046875 1.5390625 C-1.12638672 0.77722656 -1.12638672 0.77722656 0 0 Z " fill="#4843A7" transform="translate(440,106)"/>
<path d="M0 0 C11.2277386 6.91345794 17.74658647 17.10369626 21.0703125 29.76171875 C21.20566406 30.344375 21.34101563 30.92703125 21.48046875 31.52734375 C22.06054688 31.6253125 22.640625 31.72328125 23.23828125 31.82421875 C28.52147397 32.83552297 32.38689124 33.95858387 36.48046875 37.52734375 C36.48046875 42.47828374 34.6683586 43.99840509 31.41796875 47.33984375 C30.91136719 47.87391846 30.40476562 48.40799316 29.8828125 48.95825195 C28.42422467 50.49009475 26.95299297 52.00891856 25.48046875 53.52734375 C24.85269531 54.19507813 24.22492188 54.8628125 23.578125 55.55078125 C19.48160733 59.81756982 14.96368476 63.51059013 10.35546875 67.2109375 C8.50447215 68.70229753 6.66956026 70.21396121 4.85546875 71.75 C-7.2233811 81.94152956 -20.55435117 90.18691153 -34.51953125 97.52734375 C-35.26847656 97.92421387 -36.01742187 98.32108398 -36.7890625 98.72998047 C-59.54079971 110.61993269 -84.2352489 118.31975253 -109.51953125 122.52734375 C-110.2475293 122.6557666 -110.97552734 122.78418945 -111.72558594 122.91650391 C-121.63073461 124.61486873 -131.55609709 124.74723547 -141.58203125 124.83984375 C-143.45701294 124.86655151 -143.45701294 124.86655151 -145.36987305 124.89379883 C-153.06883338 124.88705309 -159.60104502 124.7904734 -165.76171875 119.66015625 C-170.80103386 113.46348648 -173.03309039 109.20015559 -172.828125 101.0859375 C-172.01290814 94.32686098 -168.5087787 89.99869082 -163.3984375 85.75390625 C-158.55671828 82.59319973 -154.69554739 82.34498773 -148.95703125 82.52734375 C-142.89031589 82.88189974 -142.89031589 82.88189974 -137.51953125 80.52734375 C-136.12960106 79.01688327 -136.12960106 79.01688327 -134.89453125 77.27734375 C-129.00386181 70.17908708 -120.55260941 66.91369061 -112.0859375 63.80078125 C-109.12443871 62.33130088 -108.08992113 61.42577938 -106.51953125 58.52734375 C-105.83253685 55.93639345 -105.24271527 53.39738608 -104.70703125 50.77734375 C-103.2051794 44.20757215 -101.42797421 39.3535879 -96.51953125 34.52734375 C-95.96007812 33.96660156 -95.400625 33.40585937 -94.82421875 32.828125 C-88.54712277 27.01547783 -82.16290718 25.14839234 -73.83203125 24.40234375 C-67.58772815 23.92598951 -67.58772815 23.92598951 -61.51953125 22.52734375 C-60.43493942 20.24487747 -60.43493942 20.24487747 -59.51953125 17.52734375 C-55.61497629 11.40669002 -51.53458499 5.68059514 -45.51953125 1.52734375 C-44.85953125 1.52734375 -44.19953125 1.52734375 -43.51953125 1.52734375 C-43.51953125 0.86734375 -43.51953125 0.20734375 -43.51953125 -0.47265625 C-28.6214674 -6.72671604 -14.63261617 -7.82674819 0 0 Z " fill="#7978DD" transform="translate(404.51953125,387.47265625)"/>
<path d="M0 0 C1.08055714 3.35707552 0.92168581 5.9347056 0.44140625 9.41015625 C0.3024292 10.47274658 0.16345215 11.53533691 0.02026367 12.63012695 C-0.13079834 13.76281006 -0.28186035 14.89549316 -0.4375 16.0625 C-3.52605874 41.14947822 -1.73953924 65.39546153 4 90 C4.16838379 90.73750488 4.33676758 91.47500977 4.51025391 92.23486328 C16.55135217 143.66639998 51.54158074 188.57347061 96.02636719 216.26123047 C100.32324188 218.88819689 104.6531144 221.45680137 109 224 C108.67 224.66 108.34 225.32 108 226 C105.8125 226.23828125 105.8125 226.23828125 103 226.3125 C96.433876 226.80709116 91.27416215 228.8115489 86.5078125 233.453125 C85.27029086 234.91355426 84.13337618 236.45734908 83 238 C77.70095025 245.05980995 77.70095025 245.05980995 73 246 C67.48115235 245.97929138 62.37033554 244.85743053 57.0625 243.4375 C38.63105237 239.05216146 21.51142115 242.61278452 5.0234375 251.4140625 C2.38243746 252.79939327 -0.22640726 253.91880866 -3 255 C-16.22942996 230.64883484 -26.7572773 205.89609328 -32.3125 178.625 C-32.45977539 177.90248047 -32.60705078 177.17996094 -32.75878906 176.43554688 C-35.65286239 161.10441368 -36.37478976 145.94227809 -36.3125 130.375 C-36.31034485 129.40444672 -36.3081897 128.43389343 -36.30596924 127.43392944 C-36.2549334 113.10569102 -35.90758438 99.07814218 -33 85 C-32.80132324 84.01692871 -32.60264648 83.03385742 -32.39794922 82.02099609 C-26.34945227 52.93837293 -15.77487805 25.24051259 0 0 Z " fill="#514BBE" transform="translate(47,137)"/>
<path d="M0 0 C2.31696232 3.47544348 3.33731839 6.9937102 4.5625 10.9375 C10.92291912 30.62470266 20.21695409 48.69915938 32.3125 65.453125 C34 68 34 68 34 70 C23.05421872 75.85670375 12.06377661 78.08889307 -0.25 74.9375 C-11.32264534 71.02843801 -19.35175552 62.93729443 -24.4375 52.5 C-27.60734057 43.76927534 -27.61187387 31.59395659 -24.03515625 22.9765625 C-19.23139242 13.8040927 -12.88705595 5.90883607 -3 2 C-2.01 2 -1.02 2 0 2 C0 1.34 0 0.68 0 0 Z " fill="#FDAB00" transform="translate(142,144)"/>
<path d="M0 0 C3.125 0.4375 3.125 0.4375 5.125 2.25 C7.5419163 6.10196035 9.67284968 10.06908435 11.7578125 14.109375 C12.91124477 16.55762505 12.91124477 16.55762505 15.125 17.4375 C18.65998254 17.88491007 22.19866665 18.27094502 25.7421875 18.64453125 C29.55557415 19.53843135 31.03161354 20.1220581 33.125 23.4375 C33.20871291 27.77579846 32.72675554 29.75551039 29.83984375 33.02734375 C28.92332031 33.80207031 28.00679687 34.57679687 27.0625 35.375 C22.96394029 39.10886107 22.96394029 39.10886107 21.4375 44.3125 C21.6239521 45.69394054 21.85951552 47.06904819 22.125 48.4375 C22.37728971 50.5390196 22.60514455 52.64357211 22.8125 54.75 C22.94011719 55.75675781 23.06773437 56.76351562 23.19921875 57.80078125 C23.125 60.4375 23.125 60.4375 21.83203125 62.2578125 C19.68836333 63.73924891 17.87667169 64.02239022 15.2890625 63.9453125 C11.38638811 63.02952248 8.13422975 60.77570962 4.7734375 58.65234375 C1.55727835 57.17708491 0.43432766 57.2919635 -2.875 58.4375 C-5.9528378 59.95186169 -8.93671073 61.59666129 -11.9375 63.2578125 C-15.23647255 64.58266584 -16.57746939 64.67407398 -19.875 63.4375 C-21.53686523 62.15307617 -21.53686523 62.15307617 -22.875 60.4375 C-22.96508789 58.41967773 -22.96508789 58.41967773 -22.59765625 56.12109375 C-20.97206202 46.23704189 -20.97206202 46.23704189 -23.98828125 37.140625 C-26.6705772 34.60092374 -26.6705772 34.60092374 -29.5546875 32.60546875 C-31.875 30.4375 -31.875 30.4375 -32.9453125 26.92578125 C-32.875 23.4375 -32.875 23.4375 -31.421875 21.0546875 C-28.63658143 19.28611152 -26.49570815 18.97541693 -23.23876953 18.73022461 C-16.75861303 18.25653009 -16.75861303 18.25653009 -11.38183594 14.97119141 C-8.59828467 11.08819112 -6.78619855 6.79438484 -4.875 2.4375 C-2.875 0.4375 -2.875 0.4375 0 0 Z " fill="#FDE202" transform="translate(224.875,74.5625)"/>
<path d="M0 0 C1.00804687 0.1753125 2.01609375 0.350625 3.0546875 0.53125 C4.75 3.0859375 4.75 3.0859375 6.1796875 6.40625 C8.58347988 11.16637651 8.58347988 11.16637651 13.0625 13.66796875 C16.26925968 14.13780381 16.26925968 14.13780381 19.3828125 14.22265625 C22.0546875 14.53125 22.0546875 14.53125 23.9765625 15.74609375 C25.0546875 17.53125 25.0546875 17.53125 25 20.0078125 C23.84819099 23.08247621 22.54070758 23.96845461 19.9296875 25.90625 C16.76802949 28.82037607 16.09543427 30.01616901 15.75 34.3828125 C15.93564409 38.13921845 16.43672588 41.82348026 17.0546875 45.53125 C14.0546875 47.53125 14.0546875 47.53125 11.2421875 47.34375 C8.0546875 46.53125 8.0546875 46.53125 5.0546875 44.90625 C1.40042139 43.23137803 -0.12520494 43.41705196 -3.9453125 44.53125 C-5.46125 45.3046875 -5.46125 45.3046875 -7.0078125 46.09375 C-10.02426272 47.56988521 -11.64825104 47.9891752 -14.9453125 47.53125 C-15.6053125 46.87125 -16.2653125 46.21125 -16.9453125 45.53125 C-16.89947624 43.71030047 -16.84321971 41.88853011 -16.71484375 40.0715332 C-16.15039468 33.11895232 -16.15039468 33.11895232 -18.71875 26.87109375 C-20.88233773 24.82677973 -20.88233773 24.82677973 -23.1953125 23.20703125 C-24.9453125 21.53125 -24.9453125 21.53125 -25.3203125 18.94921875 C-24.9453125 16.53125 -24.9453125 16.53125 -22.9453125 14.53125 C-20.58500554 14.07277311 -18.2054951 13.70981869 -15.8203125 13.40625 C-13.89832031 13.15488281 -13.89832031 13.15488281 -11.9375 12.8984375 C-10.95007813 12.77726563 -9.96265625 12.65609375 -8.9453125 12.53125 C-8.65140625 11.61085937 -8.3575 10.69046875 -8.0546875 9.7421875 C-5.00038818 0.90192678 -5.00038818 0.90192678 0 0 Z " fill="#FCF143" transform="translate(274.9453125,171.46875)"/>
<path d="M0 0 C0.10183594 0.91136719 0.20367187 1.82273437 0.30859375 2.76171875 C1.19811132 6.9278773 2.85174179 8.0894519 6.0625 10.8125 C10.79439072 15.32195141 10.79439072 15.32195141 11.6953125 18.29296875 C11.68708665 20.6167712 11.42277766 22.71544913 11 25 C10.7778755 26.76915635 10.5696258 28.54010775 10.375 30.3125 C10.25898438 31.11300781 10.14296875 31.91351563 10.0234375 32.73828125 C9.99625591 35.36130481 10.66538882 36.77395006 12 39 C9.9463858 40.20570907 7.88444845 41.38906641 5.8125 42.5625 C4.9452832 43.07586914 4.9452832 43.07586914 4.06054688 43.59960938 C1.32950064 45.12714371 -0.58105619 46.01494093 -3.73828125 45.90234375 C-6.235398 44.90608474 -7.35009723 44.10757511 -9 42 C-9.09008789 39.98217773 -9.09008789 39.98217773 -8.72265625 37.68359375 C-7.09706202 27.79954189 -7.09706202 27.79954189 -10.11328125 18.703125 C-12.7955772 16.16342374 -12.7955772 16.16342374 -15.6796875 14.16796875 C-18 12 -18 12 -19.0703125 8.48828125 C-19 5 -19 5 -17.4765625 2.64453125 C-14.40832335 0.60710431 -12.01801982 0.16035246 -8.375 -0.3125 C-6.65410156 -0.55419922 -6.65410156 -0.55419922 -4.8984375 -0.80078125 C-2 -1 -2 -1 0 0 Z " fill="#FAC802" transform="translate(211,93)"/>
<path d="M0 0 C1.7015625 0.4021875 1.7015625 0.4021875 3.4375 0.8125 C4.7575 0.8125 6.0775 0.8125 7.4375 0.8125 C7.7675 0.4825 8.0975 0.1525 8.4375 -0.1875 C12.57657366 -0.03130854 14.77950698 0.2367561 17.9375 3 C19.80992387 6.51079475 19.40438728 8.0255248 18.4375 11.8125 C18.2841497 15.75241322 18.2841497 15.75241322 19.25 19.25 C19.4375 22.8125 19.4375 22.8125 17.375 25.75 C13.94134456 28.16086446 12.53941373 28.32523922 8.4375 27.8125 C6.77083333 27.47916667 5.10416667 27.14583333 3.4375 26.8125 C3.1075 27.1425 2.7775 27.4725 2.4375 27.8125 C-1.59449561 28.36231758 -3.11782291 28.14117437 -6.4375 25.6875 C-8.9319791 22.31261651 -9.08561285 20.91021733 -8.5625 16.8125 C-8.22916667 15.47916667 -7.89583333 14.14583333 -7.5625 12.8125 C-7.8925 12.1525 -8.2225 11.4925 -8.5625 10.8125 C-9.10008841 6.78058695 -8.8700996 5.2505964 -6.5 1.875 C-3.5625 -0.1875 -3.5625 -0.1875 0 0 Z " fill="#FAE004" transform="translate(295.5625,115.1875)"/>
<path d="M0 0 C0.185625 0.680625 0.37125 1.36125 0.5625 2.0625 C2.08236085 5.1683026 2.95647624 5.71440971 5.625 7.6875 C8.60465167 10.42655868 9.23570735 12.53528954 9.45703125 16.453125 C9.51352557 20.98208614 9.30120494 25.48192586 9 30 C1.09274194 34.7016129 1.09274194 34.7016129 -3 34 C-3.66 33.34 -4.32 32.68 -5 32 C-4.95416374 30.17905047 -4.89790721 28.35728011 -4.76953125 26.5402832 C-4.20508218 19.58770232 -4.20508218 19.58770232 -6.7734375 13.33984375 C-8.93702523 11.29552973 -8.93702523 11.29552973 -11.25 9.67578125 C-13 8 -13 8 -13.375 5.41796875 C-13 3 -13 3 -11 1 C-7.30704038 -0.02582212 -3.81684076 -0.08876374 0 0 Z " fill="#FBC902" transform="translate(263,185)"/>
<path d="M0 0 C4.10169759 0.2366364 6.35989257 0.43990599 9.5 3.1875 C11 6 11 6 10.9375 9.1875 C10 12 10 12 7 14 C3.7 10.7 0.4 7.4 -3 4 C-2.01 2.68 -1.02 1.36 0 0 Z " fill="#F5C508" transform="translate(304,115)"/>
<path d="M0 0 C0.99 1.0209375 0.99 1.0209375 2 2.0625 C5.49468234 5.56725347 9.25130779 8.77221788 13 12 C10.52594105 14.00052939 9.26200452 14.95540349 6.0625 15.5 C1.88588865 14.81810427 0.49084248 13.36996335 -2 10 C-2.56821226 6.02251415 -2.10178633 3.41540279 0 0 Z " fill="#F4C309" transform="translate(289,128)"/>
</svg>
